<svg xmlns="http://www.w3.org/2000/svg" width="192" height="192" viewBox="0 0 192 192" fill="none">
  <rect width="192" height="192" rx="32" fill="#2563EB"/>
  <path d="M96 48C69.49 48 48 69.49 48 96C48 122.51 69.49 144 96 144C122.51 144 144 122.51 144 96C144 69.49 122.51 48 96 48ZM96 132C76.12 132 60 115.88 60 96C60 76.12 76.12 60 96 60C115.88 60 132 76.12 132 96C132 115.88 115.88 132 96 132Z" fill="white"/>
  <path d="M96 72C82.75 72 72 82.75 72 96C72 109.25 82.75 120 96 120C109.25 120 120 109.25 120 96C120 82.75 109.25 72 96 72ZM96 108C89.37 108 84 102.63 84 96C84 89.37 89.37 84 96 84C102.63 84 108 89.37 108 96C108 102.63 102.63 108 96 108Z" fill="white"/>
  <path d="M96 90C92.69 90 90 92.69 90 96C90 99.31 92.69 102 96 102C99.31 102 102 99.31 102 96C102 92.69 99.31 90 96 90Z" fill="white"/>
</svg>